HIERARCHY
ROOT Hips
{
  OFFSET -31.5692 30.0904 122.763
  CHANNELS 6 Xposition Yposition Zposition Zrotation Xrotation Yrotation
  JOINT LeftUpLeg
  {
    OFFSET 8.64259 1.95398 -2.38835
    CHANNELS 3 Zrotation Xrotation Yrotation
    JOINT LeftLeg
    {
      OFFSET 43.7702 0 0
      CHANNELS 3 Zrotation Xrotation Yrotation
      JOINT LeftFoot
      {
        OFFSET 40.6238 0 0
        CHANNELS 3 Zrotation Xrotation Yrotation
        JOINT LeftToeBase
        {
          OFFSET 12.7242 0 0
          CHANNELS 3 Zrotation Xrotation Yrotation
          End Site
          {
            OFFSET 0 0 0
          }
        }
      }
    }
  }
  JOINT RightUpLeg
  {
    OFFSET -8.2249 1.95398 -2.59336
    CHANNELS 3 Zrotation Xrotation Yrotation
    JOINT RightLeg
    {
      OFFSET 43.5653 0 0
      CHANNELS 3 Zrotation Xrotation Yrotation
      JOINT RightFoot
      {
        OFFSET 40.6238 0 0
        CHANNELS 3 Zrotation Xrotation Yrotation
        JOINT RightToeBase
        {
          OFFSET 12.7242 0 0
          CHANNELS 3 Zrotation Xrotation Yrotation
          End Site
          {
            OFFSET 0 0 0
          }
        }
      }
    }
  }
  JOINT Spine
  {
    OFFSET 0.165834 0.87714 6.61349
    CHANNELS 3 Zrotation Xrotation Yrotation
    JOINT Spine1
    {
      OFFSET 7.38963 1.71661e-005 0
      CHANNELS 3 Zrotation Xrotation Yrotation
      JOINT Spine2
      {
        OFFSET 11.9445 1.14441e-005 0
        CHANNELS 3 Zrotation Xrotation Yrotation
        JOINT Spine3
        {
          OFFSET 14.7254 4.19617e-005 0
          CHANNELS 3 Zrotation Xrotation Yrotation
          JOINT Spine4
          {
            OFFSET 10.9679 0 0
            CHANNELS 3 Zrotation Xrotation Yrotation
            JOINT RightShoulder
            {
              OFFSET 2.46616 -1.6653 3.69651
              CHANNELS 3 Zrotation Xrotation Yrotation
              JOINT RightArm
              {
                OFFSET 13.0012 0 0
                CHANNELS 3 Zrotation Xrotation Yrotation
                JOINT RightForeArm
                {
                  OFFSET 28.7848 1.62311e-005 0
                  CHANNELS 3 Zrotation Xrotation Yrotation
                  JOINT RightHand
                  {
                    OFFSET 26.5688 1.62095e-005 0
                    CHANNELS 3 Zrotation Xrotation Yrotation
                    End Site
                    {
                      OFFSET 0 0 0
                    }
                  }
                }
              }
            }
            JOINT LeftShoulder
            {
              OFFSET 2.38034 -1.29275 -3.7523
              CHANNELS 3 Zrotation Xrotation Yrotation
              JOINT LeftArm
              {
                OFFSET 16.3182 6.07031e-005 0
                CHANNELS 3 Zrotation Xrotation Yrotation
                JOINT LeftForeArm
                {
                  OFFSET 27.0901 0 0
                  CHANNELS 3 Zrotation Xrotation Yrotation
                  JOINT LeftHand
                  {
                    OFFSET 24.5451 1.51738e-005 0
                    CHANNELS 3 Zrotation Xrotation Yrotation
                    End Site
                    {
                      OFFSET 0 0 0
                    }
                  }
                }
              }
            }
            JOINT Neck
            {
              OFFSET 5.0226 -0.0266342 0
              CHANNELS 3 Zrotation Xrotation Yrotation
              JOINT Head
              {
                OFFSET 6.69364 2.86102e-005 0
                CHANNELS 3 Zrotation Xrotation Yrotation
                End Site
                {
                  OFFSET 0 0 0
                }
              }
            }
          }
        }
      }
    }
  }
}
MOTION
Frames:	12
Frame Time:	0.0416667
-162.135 99.9712 109.82 103.824 -67.8497 100.907 -173.013 -3.94561 90.9922 -7.63071 -3.12652 0.938563 66.9563 3.85369 -3.18233 18.329 -8.59469 7.45715 170.476 -2.25069 86.2319 -10.6286 -13.6827 -0.551914 64.5712 -3.04158 -0.260729 27.02 0.139335 3.12024 0.25489 7.57202 -90.2026 11.7305 0.412019 -0.447134 0.0595629 0.391932 -0.464843 -22.4758 0.527334 -0.302633 -2.46314 0.527347 -0.302636 92.5507 -26.9241 -102.664 43.2683 -8.78803 -7.0817 6.69707 -27.9146 -13.1252 -24.6518 -0.259568 -8.73944 -85.7089 -51.6831 85.4064 -27.0198 12.8187 -11.4747 -5.13073 7.35638 -0.00779373 4.49924 -0.544012 -16.2574 3.55597 -6.71179 1.90175 -7.33605 -6.81679 -3.91356 
-162.152 100.011 109.79 103.66 -67.7542 100.719 -173.062 -3.79249 90.9172 -7.91134 -4.17633 0.968621 66.6711 3.29166 -4.52312 18.8574 -8.032 6.93668 170.483 -2.29499 86.2154 -10.4361 -13.1513 -0.549764 64.6925 -3.1001 0.328952 27.3933 0.206128 2.05272 0.202156 7.55589 -90.1808 11.7625 0.317155 -0.393968 0.0915553 0.299526 -0.407553 -22.4436 0.420898 -0.280431 -2.431 0.420911 -0.280431 92.0693 -27.8277 -103.36 42.1565 -8.60507 -7.35267 6.93436 -27.2906 -12.8147 -24.2759 -0.157393 -9.21782 -86.589 -51.8284 84.1276 -26.5141 12.9277 -10.1404 -4.81415 5.51962 -0.852709 3.13314 -0.443751 -16.2335 3.32146 -6.49414 1.49375 -7.02518 -6.5523 -3.55552 
-162.159 99.9861 109.767 103.859 -67.7349 100.9 -173.106 -3.89725 90.9172 -7.77877 -3.89298 1.05491 67.347 3.89028 -4.45594 18.0951 -8.90575 7.80769 170.452 -2.17783 86.173 -10.8084 -13.0418 -0.52875 65.1288 -3.2277 1.10137 26.1988 0.804804 1.76348 0.210343 7.55688 -90.1838 11.7606 0.332031 -0.401435 0.0896253 0.314051 -0.415667 -22.4456 0.437326 -0.28309 -2.43295 0.43733 -0.28309 92.1558 -27.8091 -103.187 42.173 -8.64595 -7.40745 7.00562 -27.4132 -12.6892 -24.3174 -0.157392 -9.24155 -86.3613 -51.722 84.448 -26.6441 13.4516 -10.2169 -4.80895 4.36809 -1.17831 1.52366 -0.345467 -17.383 3.52374 -6.37245 1.52741 -7.24194 -6.43684 -3.4275 
-162.23 99.9967 109.8 104.144 -67.5792 101.377 -173.03 -3.8455 91.2205 -8.05444 -3.83242 1.17126 67.3824 3.76445 -4.56915 18.1959 -8.71372 7.53777 170.646 -2.5145 86.4932 -10.5919 -12.9595 -0.57599 64.9203 -3.18869 0.83047 26.3446 0.741952 1.75203 0.203808 7.56171 -90.1993 11.7509 0.311776 -0.430224 0.0799236 0.292536 -0.443539 -22.4552 0.426653 -0.316633 -2.44255 0.426655 -0.316636 92.2106 -27.8694 -103.053 42.1776 -8.74591 -7.52361 7.11642 -27.6769 -12.5743 -24.3899 -0.220184 -8.94015 -86.1355 -51.8008 84.7925 -26.1445 13.8037 -10.3269 -5.09174 4.18317 -1.31925 1.70446 -0.38967 -17.7927 3.34865 -6.37373 1.48294 -7.21438 -6.42569 -3.58042 
-162.309 99.9972 109.823 104.668 -67.5141 101.793 -172.983 -4.07777 91.2268 -7.99494 -3.59338 1.13642 67.2387 3.77083 -4.4238 17.7707 -8.97245 7.54332 170.641 -2.39803 86.5022 -11.3032 -13.1114 -0.604422 65.2585 -3.39265 0.493785 26.016 0.875602 1.8163 0.208341 7.56934 -90.2085 11.7357 0.316544 -0.448884 0.0646997 0.296483 -0.46239 -22.4704 0.436809 -0.333006 -2.45773 0.436819 -0.333004 92.1638 -27.6193 -103.236 42.3765 -8.43138 -7.36303 6.97548 -27.8903 -12.4095 -24.5265 -0.222292 -8.96009 -86.346 -52.3861 84.5679 -25.7529 13.4901 -10.0103 -5.00688 4.28906 -1.5361 2.3733 -0.469919 -17.7454 3.02793 -6.20164 2.049 -7.17566 -6.33688 -3.95993 
-162.414 100.012 109.886 104.797 -67.2739 101.691 -173.132 -4.32494 91.0527 -7.69967 -3.51758 1.25742 66.9717 3.71509 -4.34594 18.3966 -8.66322 7.68183 170.539 -2.36826 86.3564 -11.5975 -12.9017 -0.599691 65.4644 -3.47608 0.511614 25.8143 0.978342 1.76592 0.210289 7.55262 -90.1913 11.7691 0.328356 -0.416056 0.0981417 0.30974 -0.430109 -22.437 0.438236 -0.29814 -2.4244 0.438218 -0.298141 92.2109 -27.6598 -103.124 42.4489 -8.52329 -7.11816 6.92762 -27.7378 -12.7262 -24.1176 -0.235116 -8.90223 -85.9524 -51.8522 85.0699 -26.0308 13.8325 -10.2258 -5.26226 4.02186 -1.37988 2.6265 -0.503107 -17.6007 2.47651 -6.26123 2.08444 -7.03947 -6.40789 -3.70469 
-162.603 100.008 110.031 105.364 -67.0572 102.193 -173.062 -4.75576 91.2024 -7.32567 -3.2265 1.33913 66.8078 3.79485 -4.22048 18.3753 -8.62438 7.57431 170.6 -2.67141 86.4801 -11.7236 -12.7052 -0.641329 65.5931 -3.48524 0.480019 25.8367 0.962788 1.78933 0.243139 7.58684 -90.2045 11.7008 0.387673 -0.448286 0.0297998 0.367575 -0.464918 -22.5055 0.504475 -0.311051 -2.49283 0.504479 -0.311059 92.3 -27.2022 -103.095 43.1619 -8.41849 -7.12234 6.66687 -27.8692 -12.8732 -24.0237 -0.341853 -8.34435 -86.1436 -51.5288 84.7411 -26.5256 13.0668 -10.2185 -4.86716 4.76417 -0.67099 2.52085 -0.493413 -18.1242 2.17286 -6.17052 2.22711 -6.96714 -6.34503 -3.56142 
-162.91 100.022 110.244 105.617 -66.74 102.43 -172.863 -4.86003 91.5019 -7.61957 -2.7803 1.31727 66.8367 3.62523 -5.06373 19.0077 -9.02699 9.2037 170.892 -3.10199 86.8401 -11.5355 -11.9652 -0.769721 65.6807 -3.51657 0.518291 25.6526 1.04844 1.77884 0.240061 7.61825 -90.261 11.6381 0.355263 -0.557077 -0.0329518 0.330397 -0.572183 -22.5679 0.506249 -0.424557 -2.55524 0.506255 -0.424557 92.5385 -26.3698 -102.881 43.7338 -8.84332 -7.31215 7.02374 -26.7715 -12.6977 -23.7921 -0.102333 -9.49385 -85.5915 -52.7185 85.7166 -24.933 13.3998 -10.5845 -5.28082 4.71316 -0.617992 2.42673 -0.498654 -18.4213 2.38591 -5.95785 3.0256 -7.59908 -6.24402 -3.61979 
-163.35 100.006 110.539 105.817 -65.8853 102.489 -172.382 -5.19243 92.0864 -7.26464 -1.6046 1.06116 66.645 3.77852 -5.0278 19.0873 -8.84276 8.92146 171.115 -3.46095 87.2078 -11.8624 -11.0589 -0.826097 65.9912 -3.5795 0.306232 25.536 1.10305 1.77113 0.223502 7.6217 -90.2788 11.631 0.313918 -0.588158 -0.0400702 0.287734 -0.60141 -22.5748 0.47618 -0.466629 -2.56215 0.476175 -0.466627 92.2982 -26.5563 -103.324 43.496 -8.42564 -7.01695 7.06211 -26.5922 -12.2894 -23.9001 -0.0640679 -9.64891 -85.9826 -51.7962 85.0178 -26.2308 13.0808 -9.30404 -4.80317 2.85746 -1.72629 4.17993 -0.605882 -15.5987 0.945968 -5.9035 2.98389 -6.84194 -6.1833 -3.49819 
-164.02 99.9634 110.731 104.988 -64.83 101.715 -171.811 -4.71348 92.877 -7.10842 1.11514 0.639465 65.8704 3.92814 -3.29219 19.0496 -8.4555 8.06785 171.487 -3.44899 87.904 -12.0013 -9.76047 -0.72073 66.1785 -3.56034 -0.0233146 25.2299 1.23104 1.81534 0.312615 7.65645 -90.256 11.562 0.502196 -0.561722 -0.108981 0.476986 -0.583287 -22.6444 0.647793 -0.384828 -2.63173 0.647796 -0.384827 91.8968 -28.2261 -103.578 42.0181 -8.14453 -6.60094 6.83808 -25.8974 -12.7454 -23.2501 0.0999013 -10.5491 -85.6101 -50.2311 85.3509 -26.8964 12.4406 -10.1589 -5.02933 4.87816 -0.565839 3.20482 -0.537001 -17.2855 0.803354 -6.02067 2.14238 -6.94682 -6.17698 -3.28645 
-164.938 99.9203 110.618 102.164 -63.0058 98.577 -172.124 -3.34459 92.793 -6.73356 3.34253 0.660392 64.9924 3.75564 -2.87656 19.3923 -8.2776 8.12932 171.905 -2.05886 88.2507 -12.6276 -7.64988 -0.624462 66.5187 -3.36217 -0.486902 24.601 1.4207 2.20477 0.416095 7.67779 -90.2727 11.52 0.70032 -0.614877 -0.150894 0.672573 -0.645107 -22.687 0.852744 -0.375969 -2.6744 0.852734 -0.375976 91.981 -28.2992 -103.38 41.7437 -8.02691 -6.59634 6.92378 -25.7892 -12.536 -23.1082 0.0358272 -10.1826 -85.9542 -49.5918 84.7412 -27.2594 12.2717 -10.777 -4.47205 4.05678 -0.719985 3.55529 -0.654075 -18.098 0.806889 -5.22439 2.46155 -6.83142 -5.47722 -1.82408 
-166.02 99.8821 109.955 98.672 -59.08 94.0698 -172.959 -0.425778 91.9047 -7.55239 6.52449 0.541618 64.0727 3.33298 -3.69634 18.8829 -8.73062 8.42872 171.428 0.108428 87.6569 -13.8569 -4.33399 0.0368857 67.0309 -3.16595 -0.918956 24.2121 1.45972 2.75201 0.453147 7.73196 -90.3526 11.4122 0.737038 -0.776705 -0.258794 0.702146 -0.808402 -22.7947 0.936396 -0.519291 -2.78203 0.936407 -0.519286 92.1516 -27.614 -103.262 41.4792 -8.04317 -6.28436 7.03909 -25.0399 -12.4947 -24.5193 -0.0951107 -9.04709 -86.1857 -50.7101 84.5584 -25.9898 11.8813 -11.3934 -3.85517 4.87624 -1.68069 2.50364 -0.597168 -20.3895 -0.0692723 -2.2969 6.63873 -8.38701 -3.15273 -1.32616 
